<svg xmlns="http://www.w3.org/2000/svg" width="1024" height="500" viewBox="0 0 1024 500" role="img" aria-label="Graal Sellables Tools feature graphic">
  <rect width="1024" height="500" fill="#E6F2DD"/>
  <circle cx="900" cy="62" r="230" fill="#B1D3B9" opacity="0.55"/>
  <circle cx="810" cy="470" r="260" fill="#88BDA4" opacity="0.35"/>
  <rect x="700" y="76" width="224" height="348" rx="46" fill="#659287"/>
  <rect x="730" y="106" width="164" height="288" rx="34" fill="#F8FBF5"/>
  <rect x="754" y="136" width="116" height="62" rx="14" fill="#E6F2DD"/>
  <g fill="#29453E">
    <rect x="754" y="224" width="30" height="30" rx="8"/>
    <rect x="797" y="224" width="30" height="30" rx="8"/>
    <rect x="840" y="224" width="30" height="30" rx="8"/>
    <rect x="754" y="267" width="30" height="30" rx="8"/>
    <rect x="797" y="267" width="30" height="30" rx="8"/>
    <rect x="840" y="267" width="30" height="30" rx="8"/>
  </g>
  <rect x="754" y="320" width="116" height="22" rx="11" fill="#88BDA4"/>
  <text x="76" y="174" fill="#29453E" font-family="Arial, sans-serif" font-size="62" font-weight="700">Graal Sellables</text>
  <text x="76" y="244" fill="#29453E" font-family="Arial, sans-serif" font-size="62" font-weight="700">Tools</text>
  <text x="78" y="304" fill="#527A70" font-family="Arial, sans-serif" font-size="27">Calculate. Track. Preview locally.</text>
  <rect x="78" y="350" width="330" height="54" rx="27" fill="#659287"/>
  <text x="112" y="385" fill="#FFFFFF" font-family="Arial, sans-serif" font-size="22" font-weight="700">Simple and privacy-first</text>
</svg>
